<svg id="Layer_1" data-name="Layer 1" xmlns="http://www.w3.org/2000/svg" viewBox="0 0 1404.61 534.59">
    <defs>
        <style>.cls-1{fill:#c9a13b;}.cls-2{fill:#526262;}</style>
    </defs>
    <path d="M373.25,800.2c6.25-4.86,14.42-5.21,17-5.21v-7H297.7v6.34c7,.69,12.24,1.47,17.71,5.55C324,805.76,326.53,815,327,835.37v168.48c-1.91,18.85-4.51,27.36-13,32.22-5.56,3-14.77,4.43-16.24,4.78v6.25h91.79v-6.25c-5.56-.79-10.33-1.13-14.76-4.09-13-8.85-13-27-13-41.07V834.59C363.18,815.75,365.09,805.76,373.25,800.2Z"
          transform="translate(-297.7 -718.71)"/>
    <path d="M704.56,1028.25c-6.6-9.29-6.6-18.84-7.73-30-3.39-33.35-4.86-66.69-7.38-99.61-.78-11.89-1.48-23.36-2.61-35.17-1.13-12.24-2.26-24.49-2.26-37.43,0-14.07,3-23.71,16.33-29.26a106.11,106.11,0,0,1,10.34-3.3v-5.91H655L570.91,992c-10-25.88-20-51.84-30.75-77.37C522.8,872,504,829.47,485,787.26H427.27V795c17,3,23.71,6.34,25.53,15.55,1.13,5.21.78,10.77.78,15.89L451,859.08v1.83l-7.82,123.31c-2.52,28.14-4.78,42.56-17.72,50.72-4.43,3-7.38,4.08-17.45,6.25v5.56h78.5v-5.9c-1.47-.35-9.63-1.13-14.76-4.09a23.45,23.45,0,0,1-7.47-6.25c-7.38-9.64-7-23-7-26.31,0-11.47,1.13-22.58,1.91-33.7l9.2-141.81c6.69,17.37,13.73,35.17,20.76,53,10.33,25.53,21.45,51.07,32.22,76.6,13.29,31.09,26.31,62.61,39.25,93.7l91.1-223.27,3.3,34.82,3.3,42.9c1.91,20.76,3.39,41.17,4.86,61.49.35,8.16.7,15.54,1.48,23.71,0,4.77.35,9.63.35,14.76,0,17.45-6.25,26-12.59,29.7-2.61,1.82-7.39,3.3-15.2,4.78l-.35,7h91.79v-7C718.28,1039,710.9,1037.11,704.56,1028.25Z"
          transform="translate(-297.7 -718.71)"/>
    <path d="M926.79,816.09c-22.23-25.87-54.8-27-65.22-27.79-5.47-.34-11.46-.69-17.37-.69H746.85v5.91c10.34,1.47,14.07,3,18.5,6.68,8.16,7.38,10,17,10.33,38.13V984.22c-.34,19.2-.69,33.26-4.08,41.08a27.16,27.16,0,0,1-4.77,7.38c-5.56,6.34-11.82,7.38-20.33,8.51v5.91h91.8v-5.91c-7.38-.69-13.72-1.82-19.63-7.38-8.51-7.82-9.64-20-9.64-43V925.34c4.08.7,22.58,4.08,39.25,4.08,23.37,0,53.33-6,71.13-21.1,20.32-16.67,22.93-41.51,23.27-50.37A61.9,61.9,0,0,0,926.79,816.09Zm-25.53,65.14c-2.26,6.34-5.21,11.89-10,16.67C874.16,916.83,845.33,918,839,918c-12.59,0-27.35-3.73-30.31-4.08V797.94h21.11c19.28,1.13,37,2.61,52.19,14.85,7.38,5.56,22.23,22.24,22.23,48.9A65.41,65.41,0,0,1,901.26,881.23Z"
          transform="translate(-297.7 -718.71)"/>
    <path d="M1177.42,1033c-8.51-7.73-12.16-18.5-15.89-29.61-3.74-11.47-7.73-22.93-11.46-34.39l-21.89-65.92-22.93-68.87c3,20-3.82,40.73-14.59,61.4,3.83,10.86,10.95,35.35,14.86,46.55h0l9.37,27.18,9.64,30c2.17,6.69,5.13,15.2,5.13,23.37a21.33,21.33,0,0,1-1,7,12.93,12.93,0,0,1-4.87,6.69c-7,5.12-16.24,4.77-18.5,4.77v6.69h94.06V1042C1186.71,1039.72,1182.28,1037.55,1177.42,1033Z"
          transform="translate(-297.7 -718.71)"/>
    <path class="cls-1"
          d="M1090.66,895.64c-1.73,3.39-83.22,125.63-57.31,151.72a.18.18,0,0,1-.18.17c-34-31.52-23.63-64.71,1.13-106.29,2.52-4.23,5.3-8.34,8.17-12.6,13.37-20,28.13-40.29,39.08-59.92,10.85-19.45,17.89-38.38,16-55.75,0-.09.08-.18.17-.09.43.78.87,1.65,1.3,2.43v.09a58.75,58.75,0,0,1,6.17,18.58.33.33,0,0,0,.08.26C1108.29,854.22,1101.43,875,1090.66,895.64Z"
          transform="translate(-297.7 -718.71)"/>
    <path d="M1448.11,982.31c-5.12,8.17-9.2,15.2-16.24,22.58-24.49,25.62-55.58,28.57-68.17,28.57A93.45,93.45,0,0,1,1313,1019c-34.39-21.45-48.11-61.83-48.11-101a219.58,219.58,0,0,1,2.26-31.17c3.65-22.58,10.68-44,25.53-62.19,24.06-28.83,54.8-31.78,68.44-31.78a89.86,89.86,0,0,1,61.13,23.27c7,7,16.68,18.5,22.23,41.08.7,4.08,1.48,7.82,2.18,11.55h8.51l-3.3-78.94h-5.56c-4.08,4.08-7.38,7.47-12.94,7.47-4.86,0-11.46-3-12.59-3.39-5.21-1.82-10.42-3.3-16-4.77-24.41-7-38.47-8.17-51.07-8.17-79.55,0-110.72,55.93-120.71,82.24-9.64,25.54-10.33,48.81-10.33,59.23,0,52.89,28.13,100,76.59,119.93a139.89,139.89,0,0,0,52.28,10.34c13.29,0,53.24-1.83,81.81-31.09,11.81-11.81,22.93-30,25.18-33.26Z"
          transform="translate(-297.7 -718.71)"/>
    <path d="M1695.62,779.1c-11.47,7-14.07,7.73-28.14,8.16H1508c-12.94-.43-16.68-1.13-27-7.81l-8.51-.35V838h8.16c1-9.64,2.17-17.46,8.86-24.84,9.64-10.77,23.71-11.46,38.82-11.81h41.86v188.8c-.35,22.23-1.13,35.52-8.17,42.9-7.38,8.16-17.36,7-21.45,7v7.47h93.36v-6.34c-6.69-1.13-22.67-2.6-27.44-21.79-1.13-4.87-1.48-8.95-1.83-19.63V801.33h43.69c15.19.35,30,1,39.25,12.16,6.25,7.47,7,14.85,7.73,24.49l7,.35V779.1Z"
          transform="translate(-297.7 -718.71)"/>
    <path class="cls-1"
          d="M1082.42,782.4c-8.34,21.71-22.93,44.55-38.39,67.3-29.87,44.21-62.79,88.06-58.53,123,0,.09-.09.09-.17,0-47.85-79.37,108.81-193,96.39-253.84-.08-.09.09-.17.09-.09C1093.1,737.85,1091.19,759.56,1082.42,782.4Z"
          transform="translate(-297.7 -718.71)"/>
    <path class="cls-1"
          d="M1099.61,800v.09c-1.3,17.45-8,35-17.19,52.45-13.55,25.7-32.74,51.24-48.46,76.07-17.63,27.79-31,54.63-27.44,79.81v.09a53.74,53.74,0,0,0,3.73,13.89c.09.09-.09.18-.09.09a67.62,67.62,0,0,1-4.95-6.42V1016a60.54,60.54,0,0,1-10.33-25.36v-.09c-5.21-32.13,13.63-68.6,36.39-103.69v-.08c10-15.55,20.75-30.75,30.48-45.25a.27.27,0,0,0,.09-.17c4.16-6,8-11.9,11.55-17.55,9.55-15.19,17-29.26,20.06-41.42a40.93,40.93,0,0,0,1-16c0-.17.17-.17.17-.09A74.73,74.73,0,0,1,1099.61,800Z"
          transform="translate(-297.7 -718.71)"/>
    <path class="cls-2"
          d="M1121.4,1253.29a72.67,72.67,0,0,1-27.81-5.32,65.65,65.65,0,0,1-36.87-36.47,71.78,71.78,0,0,1,3.73-62.22,65.73,65.73,0,0,1,25.15-24.81,71.59,71.59,0,0,1,35.8-9q26.22,0,44.9,13.54a2.75,2.75,0,0,1,.87,2.42q0,3.67-2.91,10.55-4.15,9.87-7.54,9.87a2.1,2.1,0,0,1-1.07-.29,55.68,55.68,0,0,0-34.05-11,42.64,42.64,0,0,0-37.3,21.38,45.31,45.31,0,0,0,0,44.89,42.62,42.62,0,0,0,37.3,21.39,59,59,0,0,0,34.05-10.84,1.68,1.68,0,0,1,1.07-.39q3.29,0,7.54,9.39,3,6.77,3,10.74a3.14,3.14,0,0,1-1,2.71Q1147.43,1253.3,1121.4,1253.29Z"
          transform="translate(-297.7 -718.71)"/>
    <path class="cls-2"
          d="M1332.08,1249.1a2,2,0,0,1-1,1.65,10.65,10.65,0,0,1-3.13.83,33.7,33.7,0,0,1-3.8.33h-4.79c-9.25,0-14.37-.83-15-2.31l-9.41-23s-.17,0-.17-.16l-.66-1.49-27.57-65.22-.33.66-1.16,2.47-18,41.62L1238,1225l-.16.5c0,.16-.17.16-.17.16l-9.91,23.95c-.66,1.48-5.78,2.31-15.19,2.31h-4.62a33.31,33.31,0,0,1-3.8-.33,9.36,9.36,0,0,1-3.14-.83,2,2,0,0,1-1-1.65,2.42,2.42,0,0,1,.33-1l33-70.67,1.15-2.65,18-41.61.83-1.81-19.49-41.78a3.18,3.18,0,0,1-.33-1.16,1.76,1.76,0,0,1,1-1.48,6.25,6.25,0,0,1,3.14-1c1.32,0,2.64-.17,3.8-.17,1,0,2.64-.17,4.62-.17,9.41,0,14.53.83,15.19,2.48l3.8,9.25,1.49,3.47,1.48-3.47,3.8-9.25c.66-1.65,5.78-2.48,15.19-2.48,2,0,3.64.17,4.63.17,1.15,0,2.47.17,3.79.17a6.25,6.25,0,0,1,3.14,1,1.76,1.76,0,0,1,1,1.48,3,3,0,0,1-.33,1.16l-19.48,41.78.82,1.81,19.16,44.26,11.89,27.41,20.14,43.26A2.28,2.28,0,0,1,1332.08,1249.1Z"
          transform="translate(-297.7 -718.71)"/>
    <path class="cls-2"
          d="M1383.56,1251.84c-2.25,0-4,0-5.08,0a33.2,33.2,0,0,1-3.91-.38,6.15,6.15,0,0,1-3.1-1.12,1.94,1.94,0,0,1-.58-2l28.54-131.39a2.12,2.12,0,0,1,.92-1.35,2.91,2.91,0,0,1,1.36-.54c.41,0,1,0,1.88,0,2.52,0,4,.45,4.55,1.35l48.38,93.46,48.47-93.46c.52-.9,2-1.35,4.45-1.35s3.94.64,4.26,1.93l28.44,131.39a2,2,0,0,1-.53,2,5.92,5.92,0,0,1-3.09,1.12,34.71,34.71,0,0,1-4,.38c-1.13,0-2.82,0-5.08,0s-4,0-5.08,0-2.48-.13-4.06-.29a11.13,11.13,0,0,1-3.58-.82,2.27,2.27,0,0,1-1.41-1.55l-15.48-80.4-39.47,81.18c-.52,1-1.81,1.45-3.87,1.45s-3.36-.49-3.87-1.45l-39.48-81.18-15.38,80.4q-.49,1.84-4,2.28A89.78,89.78,0,0,1,1383.56,1251.84Z"
          transform="translate(-297.7 -718.71)"/>
    <path class="cls-2"
          d="M1617.64,1251.94c-2.13,0-3.72,0-4.79,0s-2.3-.13-3.72-.29a7,7,0,0,1-3.1-.92,2,2,0,0,1-1-1.74V1119.39a1.94,1.94,0,0,1,.62-1.46,2.06,2.06,0,0,1,1.41-.58h55.44A38.38,38.38,0,0,1,1690.6,1129q11.7,11.67,11.7,29.75t-11.7,29.66a38.38,38.38,0,0,1-28.06,11.66h-32.42v48.76a2,2,0,0,1-1,1.74,7.14,7.14,0,0,1-3.1,1,36.57,36.57,0,0,1-3.72.34C1621.27,1251.92,1619.71,1251.94,1617.64,1251.94Zm41.22-75.76a16.38,16.38,0,0,0,12.09-5.08,17.38,17.38,0,0,0,0-24.48,16.42,16.42,0,0,0-12.09-5.08h-28.74v34.64Z"
          transform="translate(-297.7 -718.71)"/>
</svg>
